<?xml version="1.0" encoding="utf-8"?>
<!-- Generator: Adobe Illustrator 15.0.0, SVG Export Plug-In . SVG Version: 6.00 Build 0)  -->
<!DOCTYPE svg PUBLIC "-//W3C//DTD SVG 1.1//EN" "http://www.w3.org/Graphics/SVG/1.1/DTD/svg11.dtd">
<svg version="1.1" id="Layer_1" xmlns="http://www.w3.org/2000/svg" xmlns:xlink="http://www.w3.org/1999/xlink" x="0px" y="0px"
	 width="168px" height="57px" viewBox="-38.645 -11.49 168 57" enable-background="new -38.645 -11.49 168 57" xml:space="preserve"
	>
<g>
	<path fill="#147EC5" d="M14.577,31.166c-2.339,0.498-4.894,0.721-8.279,0.721c-7.176,0-13.953-1.111-13.953-9.672
		c0-6.947,4.834-8.166,8.224-8.668L9.913,12.1v-1.001c0-1.333-0.227-2.112-1.064-2.556c-0.66-0.394-1.943-0.552-3.504-0.552
		c-3.328,0-7.779,1.219-8.89,1.555C-3.713,9.6-3.823,9.6-3.987,9.6c-0.333,0-0.558-0.167-0.614-0.501c0,0-0.988-4.364-1.002-4.445
		c-0.017-0.093-0.043-0.228-0.043-0.335c0-0.556,0.32-0.778,0.712-0.947c0.996-0.384,6.448-2.109,12.726-2.109
		c3.836,0,6.669,0.554,8.617,1.663c2.718,1.501,3.834,3.951,3.834,7.234v15.114C20.242,29.662,18.297,30.276,14.577,31.166z
		 M10.071,17.713l-4.447,0.721c-1.829,0.279-3.276,0.725-3.276,3.67c0,3.059,2.388,3.561,4.057,3.561
		c1.835,0,3.667-0.451,3.667-0.451V17.713z"/>
	<path fill="#147EC5" d="M68.278,18.774c0,0.883-0.224,1.828-1.614,1.828H49.825c0,1.947,0.775,3.277,2.666,3.945
		c1.168,0.449,2.84,0.666,5.001,0.666c3.338,0,6.509-1.055,7.393-1.275l0.158-0.023c0.392,0,0.777,0.1,0.938,0.713
		c0,0,0.892,3.766,0.907,3.865c0.021,0.105,0.054,0.283,0.054,0.391c0,0.555-0.235,0.844-0.714,1.057
		c-0.49,0.207-5.394,1.943-10.618,1.943c-10.842,0-16.123-3.559-16.123-15.062c0-11.562,3.836-15.565,14.509-15.565
		c5.337,0,8.894,1.052,11.055,3.278c2.4,2.45,3.231,6.224,3.231,11.565v2.674H68.278z M58.161,13.819
		c0-0.997-0.113-1.721-0.228-2.502c-0.445-2.556-1.719-3.388-3.723-3.388c-3,0-3.943,1.109-4.224,3.054
		c-0.166,1.113-0.166,2.223-0.166,3.728h8.28C58.161,14.435,58.161,14.099,58.161,13.819z"/>
	<path fill="#147EC5" d="M-9.014,30.381l-8.848-14.335l8.743-13.354c0-0.054,0.053-0.114,0.053-0.22c0-0.224-0.108-0.563-0.5-0.563
		h-9.693h-0.281c-0.273,0-0.552,0.062-0.771,0.503L-28.3,15.876V-10.66c0-0.494-0.394-0.83-0.946-0.83h-8.451
		c-0.558,0-0.948,0.335-0.948,0.83v40.993c0,0.498,0.391,0.834,0.948,0.834h8.453c0.553,0,0.946-0.336,0.946-0.834V16.653
		l7.333,14.123c0.164,0.336,0.5,0.391,0.778,0.391h10.728c0.274,0,0.498-0.273,0.498-0.559C-8.961,30.551-8.961,30.502-9.014,30.381
		z"/>
	<path fill="#147EC5" d="M35.271-10.66c0-0.494-0.386-0.83-0.942-0.83h-8.614c-0.554,0-0.944,0.335-0.944,0.83v40.993
		c0,0.498,0.39,0.834,0.944,0.834c0,0,1.547,0,2.196,0c0.65,0,2.979-0.016,4.698-0.799c1.71-0.771,2.232-1.898,2.42-2.756
		c0.204-0.912,0.243-1.561,0.243-2.312V-10.66z"/>
	<path fill="#147EC5" d="M123.681,31.166c-2.34,0.498-4.895,0.721-8.284,0.721c-7.173,0-13.95-1.111-13.95-9.672
		c0-6.947,4.839-8.166,8.227-8.668l9.341-1.447v-1.001c0-1.333-0.224-2.112-1.057-2.556c-0.672-0.394-1.945-0.552-3.5-0.552
		c-3.334,0-7.784,1.219-8.897,1.555C105.394,9.6,105.282,9.6,105.117,9.6c-0.332,0-0.556-0.167-0.614-0.501
		c0,0-0.979-4.364-0.999-4.445c-0.012-0.093-0.044-0.228-0.044-0.335c0-0.556,0.322-0.778,0.714-0.947
		c1.001-0.384,6.449-2.109,12.727-2.109c3.837,0,6.667,0.554,8.612,1.663c2.726,1.501,3.841,3.951,3.841,7.234v15.114
		C129.353,29.662,127.399,30.276,123.681,31.166z M119.176,17.713l-4.45,0.721c-1.831,0.279-3.278,0.725-3.278,3.67
		c0,3.059,2.393,3.561,4.06,3.561c1.834,0,3.669-0.451,3.669-0.451V17.713z"/>
	<path fill="#147EC5" d="M99.113,1.908h-8.624c-0.413,0-0.764,0.293-0.841,0.696c-0.008,0.027-4.187,19.946-4.25,20.325h-1.143
		c-0.069-0.377-4.246-20.298-4.252-20.325c-0.079-0.401-0.432-0.696-0.837-0.696h-8.632c-0.473,0-0.866,0.394-0.866,0.868
		c0,0.058,0.014,0.116,0.023,0.169c0.043,0.189,6.106,23.189,6.654,25.212c0.499,1.863,1.942,3,3.885,3h9.189
		c1.938,0,3.386-1.135,3.891-3c0.535-2.023,6.611-25.023,6.65-25.212c0.008-0.054,0.021-0.112,0.021-0.169
		C99.983,2.302,99.587,1.908,99.113,1.908z"/>
	<g>
		<path fill="#FF4E00" d="M9.739-2.309C9.644-2.406,9.085-2.722,8.466-3.166C7.836-3.619,7.23-4.097,7.161-4.142
			C7.082-4.211,6.969-4.25,6.853-4.25S6.626-4.211,6.541-4.142C6.476-4.097,5.867-3.619,5.233-3.166
			C4.617-2.722,4.051-2.4,3.965-2.309c-0.043,0.042-0.068,0.098-0.06,0.162c0,0.046,0.017,0.092,0.046,0.129
			c0.031,0.054,0.326,0.334,0.894,0.637C5.5-1.02,6.432-0.692,6.58-0.64c0.083,0.033,0.173,0.044,0.273,0.044
			c0.095,0,0.188-0.013,0.265-0.044C7.273-0.692,8.2-1.02,8.844-1.373c0.58-0.311,0.875-0.59,0.914-0.645
			C9.78-2.056,9.796-2.101,9.8-2.147C9.804-2.207,9.78-2.268,9.739-2.309z"/>
		<path fill="#FF4E00" d="M4.508-9.065c0.028,0.06,0.42,0.619,0.913,1.204c0.502,0.605,1.045,1.185,1.14,1.266
			C6.642-6.528,6.74-6.472,6.853-6.472S7.07-6.528,7.147-6.595c0.09-0.081,0.64-0.66,1.136-1.258
			c0.49-0.592,0.881-1.151,0.915-1.211c0.028-0.048,0.043-0.118,0.042-0.189c0-0.077-0.026-0.15-0.063-0.21
			c-0.043-0.062-0.522-0.581-1.073-1.078c-0.514-0.471-1.066-0.882-1.083-0.892c-0.047-0.039-0.104-0.056-0.164-0.056
			c-0.066,0-0.128,0.019-0.172,0.056c-0.003,0.01-0.561,0.421-1.076,0.892c-0.552,0.498-1.031,1.017-1.073,1.078
			C4.494-9.405,4.47-9.325,4.47-9.254C4.462-9.181,4.474-9.123,4.508-9.065z"/>
	</g>
	<g>
		<g>
			<g>
				<path fill="#FF4E00" d="M4.437-4.157c0.559-0.452,1.021-0.87,1.083-0.947c0.043-0.046,0.07-0.122,0.083-0.191
					c0.006-0.029,0.006-0.05,0.006-0.072c0-0.11-0.043-0.201-0.111-0.278c-0.063-0.092-1.92-2.359-1.983-2.423
					C3.473-8.11,3.416-8.124,3.354-8.124C3.297-8.12,3.243-8.096,3.196-8.06C3.131-8.006,2.528-7.302,2.062-6.678
					C1.714-6.206,1.482-5.785,1.444-5.731C1.403-5.656,1.376-5.558,1.376-5.467c0,0.042,0.006,0.081,0.012,0.122
					C1.414-5.241,1.612-4.738,1.9-4.236c0.292,0.524,0.666,0.997,0.756,1.065c0.058,0.048,0.134,0.069,0.211,0.077
					C2.945-3.09,3.017-3.115,3.077-3.156C3.137-3.193,3.814-3.669,4.437-4.157z"/>
			</g>
			<g>
				<path fill="#FF4E00" d="M9.275-4.157C8.709-4.609,8.242-5.027,8.19-5.104C8.147-5.151,8.115-5.226,8.103-5.295
					c-0.003-0.029-0.003-0.05-0.003-0.072c0-0.11,0.043-0.201,0.105-0.278c0.062-0.092,1.918-2.359,1.985-2.423
					c0.04-0.042,0.099-0.056,0.162-0.056c0.06,0.004,0.117,0.027,0.156,0.064c0.065,0.054,0.671,0.758,1.13,1.381
					c0.354,0.473,0.587,0.893,0.62,0.947c0.05,0.075,0.075,0.173,0.075,0.264c0,0.042-0.008,0.081-0.014,0.122
					c-0.026,0.104-0.228,0.607-0.512,1.109c-0.298,0.524-0.673,0.997-0.758,1.065c-0.059,0.048-0.134,0.069-0.215,0.077
					c-0.079,0.004-0.148-0.021-0.209-0.062C10.57-3.193,9.891-3.669,9.275-4.157z"/>
			</g>
		</g>
	</g>
	<path fill="#147EC5" d="M-22.708,44.815c-0.952,0.438-2.428,0.695-3.541,0.695c-2.519,0-3.56-0.684-3.56-2.951
		c0-2.496,1.511-2.898,3.474-2.898c0.916,0,1.595,0.086,2.496,0.275c0-2.15-0.551-2.602-2.581-2.602
		c-0.838,0-1.824,0.121-2.518,0.42l-0.332-1.059c0.682-0.195,1.733-0.434,2.914-0.434c2.558,0,3.647,0.746,3.647,3.4V44.815z
		 M-23.839,44.09v-3.197c-0.642-0.154-1.489-0.225-2.354-0.225c-1.758,0-2.347,0.189-2.347,1.807c0,1.746,0.501,2.01,2.347,2.01
		C-25.346,44.483-24.515,44.328-23.839,44.09z"/>
	<path fill="#147EC5" d="M-19.706,38.33v-1.832h1.13v1.604c0,2.67,0.552,3.211,2.305,3.211c1.253,0,2.428-0.441,2.428-1.234v-3.58
		h1.129v8.77h-1.129v-3.596c-0.43,0.35-1.436,0.713-2.548,0.713C-18.774,42.385-19.706,41.52-19.706,38.33z"/>
	<path fill="#147EC5" d="M-1.92,40.996h-6.26c0.021,2.848,0.92,3.453,2.954,3.453c0.62,0,1.77-0.193,2.517-0.463l0.254,1.037
		c-0.901,0.279-2.151,0.486-2.88,0.486c-2.658,0-4.096-1.076-4.096-4.668c0-3.438,1.338-4.58,3.943-4.58
		C-3.007,36.26-1.92,37.266-1.92,40.996z M-8.162,39.973h4.957c-0.099-2.188-0.67-2.656-2.284-2.656
		C-7.334,37.317-8.026,37.905-8.162,39.973z"/>
	<path fill="#147EC5" d="M7.648,45.024c-0.666,0.297-1.757,0.486-2.506,0.486c-2.721,0-4.236-1.076-4.236-4.668
		c0-3.576,1.529-4.58,4.236-4.58c0.732,0,1.876,0.188,2.506,0.434l-0.367,1.059c-0.627-0.299-1.407-0.42-2.139-0.42
		c-2.043,0-2.982,0.561-2.982,3.539c0,2.855,0.938,3.562,2.982,3.562c0.749,0,1.512-0.178,2.139-0.449L7.648,45.024z"/>
	<path fill="#147EC5" d="M14.516,45.268h-1.124v-7.725H9.95V36.5h8.003v1.043h-3.438V45.268z"/>
	<path fill="#147EC5" d="M27.517,42.791c0,1.643-0.871,2.477-2.412,2.477h-4.789v-8.77h4.635c1.928,0,2.303,0.996,2.303,2.086
		c0,1.041-0.22,1.822-1.734,1.939C27.083,40.58,27.517,41.604,27.517,42.791z M26.063,38.742c0-0.887-0.283-1.199-1.286-1.199H21.44
		v2.52h3.336C25.78,40.063,26.063,39.506,26.063,38.742z M26.268,42.75c0-1.064-0.42-1.699-1.406-1.699H21.44v3.17h3.475
		C25.937,44.221,26.268,43.752,26.268,42.75z"/>
	<path fill="#147EC5" d="M38.035,40.996h-6.269c0.016,2.848,0.921,3.453,2.954,3.453c0.622,0,1.768-0.193,2.515-0.463l0.261,1.037
		c-0.905,0.279-2.154,0.486-2.882,0.486c-2.65,0-4.098-1.076-4.098-4.668c0-3.438,1.338-4.58,3.939-4.58
		C36.938,36.26,38.035,37.266,38.035,40.996z M31.784,39.973h4.965c-0.105-2.188-0.676-2.656-2.293-2.656
		C32.615,37.317,31.926,37.905,31.784,39.973z"/>
	<path fill="#147EC5" d="M42.214,40.996v4.271h-1.126v-8.77h1.126v3.508h4.739v-3.508h1.127v8.77h-1.127v-4.271H42.214z"/>
	<path fill="#147EC5" d="M52.721,40.996v4.271H51.59v-8.77h1.131v3.508h4.731v-3.508h1.127v8.77h-1.127v-4.271H52.721z"/>
	<path fill="#147EC5" d="M66.601,40.008c1.91,0,2.689,0.818,2.689,2.531c0,1.895-0.779,2.729-2.689,2.729h-4.514v-8.77h1.126v3.508
		h3.388V40.008z M68.042,42.559c0-1.18-0.457-1.562-1.441-1.562h-3.388v3.225h3.388C67.625,44.221,68.042,43.809,68.042,42.559z
		 M71.61,45.268h-1.119v-8.77h1.119V45.268z"/>
	<path fill="#147EC5" d="M82.406,40.996h-6.259c0.012,2.848,0.911,3.453,2.946,3.453c0.623,0,1.769-0.193,2.518-0.463l0.257,1.037
		c-0.901,0.279-2.151,0.486-2.879,0.486c-2.656,0-4.1-1.076-4.1-4.668c0-3.438,1.339-4.58,3.943-4.58
		C81.314,36.26,82.406,37.266,82.406,40.996z M76.159,39.973h4.968c-0.103-2.188-0.681-2.656-2.292-2.656
		C76.996,37.317,76.301,37.905,76.159,39.973z"/>
	<path fill="#147EC5" d="M95.648,45.51c-2.729,0-3.982-1.076-3.982-4.668c0-3.576,1.273-4.58,3.982-4.58
		c2.724,0,3.991,1.006,3.991,4.58C99.639,44.434,98.391,45.51,95.648,45.51z M95.648,37.332c-2.049,0-2.729,0.561-2.729,3.539
		c0,2.855,0.68,3.562,2.729,3.562c2.064,0,2.743-0.705,2.743-3.562C98.391,37.895,97.712,37.332,95.648,37.332z"/>
	<path fill="#147EC5" d="M113.208,40.996v4.271h-1.125v-8.77h1.125v3.508h4.738v-3.508h1.13v8.77h-1.13v-4.271H113.208z"/>
	<path fill="#147EC5" d="M129.353,44.815c-0.957,0.438-2.433,0.695-3.548,0.695c-2.512,0-3.554-0.684-3.554-2.951
		c0-2.496,1.509-2.898,3.469-2.898c0.922,0,1.604,0.086,2.504,0.275c0-2.15-0.556-2.602-2.593-2.602c-0.829,0-1.817,0.121-2.51,0.42
		l-0.332-1.059c0.674-0.195,1.736-0.434,2.915-0.434c2.555,0,3.65,0.746,3.65,3.4v5.152H129.353z M128.222,44.09v-3.197
		c-0.646-0.154-1.497-0.225-2.367-0.225c-1.747,0-2.342,0.189-2.342,1.807c0,1.746,0.508,2.01,2.342,2.01
		C126.708,44.483,127.543,44.328,128.222,44.09z"/>
	<path fill="#147EC5" d="M-33.048,45.268c-2.571-2.609-3.355-3.324-4.467-4.287v4.287h-1.129v-8.77h1.129v4.221
		c0.767-0.645,2.328-2.24,4.115-4.221h1.462c-2.049,2.273-3.787,4.102-3.989,4.305c0.294,0.281,1.689,1.66,4.443,4.465H-33.048z"/>
	<path fill="#147EC5" d="M108.508,45.268c-2.57-2.609-3.352-3.324-4.461-4.287v4.287h-1.131v-8.77h1.131v4.221
		c0.764-0.645,2.327-2.24,4.117-4.221h1.452c-2.043,2.273-3.786,4.102-3.987,4.305c0.295,0.281,1.692,1.66,4.441,4.465H108.508z"/>
</g>
</svg>
